<svg width="78" height="76" viewBox="0 0 78 76" fill="none" xmlns="http://www.w3.org/2000/svg">
<ellipse cx="39" cy="38" rx="39" ry="38" fill="#D9D9D9"/>
<path d="M26.8266 24.48H38.7866C41.6666 24.48 44.2132 25.0533 46.4266 26.2C48.6666 27.3467 50.3999 28.9467 51.6266 31C52.8799 33.0533 53.5066 35.4 53.5066 38.04C53.5066 40.8133 52.8932 43.2533 51.6666 45.36C50.4666 47.4667 48.7466 49.1067 46.5066 50.28C44.2932 51.4267 41.7199 52 38.7866 52H26.8266V24.48ZM38.3866 44.8C40.3866 44.8 41.9066 44.1733 42.9466 42.92C44.0132 41.64 44.5466 39.9867 44.5466 37.96C44.5466 36.04 44.0266 34.52 42.9866 33.4C41.9732 32.2533 40.4399 31.68 38.3866 31.68H35.6666V44.8H38.3866Z" fill="black"/>
</svg>
