<svg width="78" height="76" viewBox="0 0 78 76" fill="none" xmlns="http://www.w3.org/2000/svg">
<ellipse cx="39" cy="38" rx="39" ry="38" fill="#D9D9D9"/>
<path d="M38.2841 52.64C34.5241 52.64 31.3507 51.9467 28.7641 50.56L30.7641 44.36C33.5107 45.3467 35.9641 45.84 38.1241 45.84C39.2974 45.84 40.1507 45.7067 40.6841 45.44C41.2441 45.1467 41.5241 44.72 41.5241 44.16C41.5241 43.7867 41.3774 43.4667 41.0841 43.2C40.7907 42.9067 40.2041 42.5867 39.3241 42.24C38.4441 41.8933 37.1241 41.4667 35.3641 40.96C33.2041 40.32 31.5241 39.28 30.3241 37.84C29.1241 36.3733 28.5241 34.6933 28.5241 32.8C28.5241 29.8667 29.4841 27.6533 31.4041 26.16C33.3507 24.64 35.9641 23.88 39.2441 23.88C40.9507 23.88 42.6307 24.0667 44.2841 24.44C45.9374 24.7867 47.4041 25.3067 48.6841 26L46.5241 32.04C45.0307 31.5333 43.7241 31.1733 42.6041 30.96C41.5107 30.72 40.4441 30.6 39.4041 30.6C37.6441 30.6 36.7641 31.08 36.7641 32.04C36.7641 32.52 37.0441 32.9333 37.6041 33.28C38.1907 33.6 39.3774 34.0133 41.1641 34.52C43.9641 35.2667 46.0841 36.4133 47.5241 37.96C48.9641 39.48 49.6841 41.3067 49.6841 43.44C49.6841 46.4 48.7241 48.68 46.8041 50.28C44.8841 51.8533 42.0441 52.64 38.2841 52.64Z" fill="black"/>
</svg>
